# xmcd
#
# Track frame offsets: 
#        150
#        20380
#        44320
#        54223
#        75226
#        97572
#        122606
#        128912
#
# Disc length: 1876 seconds
#
# Revision: 0
# Processed by: cddbd v1.5.1PL2 Copyright (c) Steve Scherf et al.
# Submitted via: ExactAudioCopy v0.95b4
#
DISCID=4c075208
DTITLE=Captain Sergeant Major - Captain Sergeant Major
DYEAR=2003
DGENRE=
TTITLE0=The Light Remains
TTITLE1=Liquid Bitch
TTITLE2=Pre-emptive Strike
TTITLE3=End of Pitch Salesman
TTITLE4=Don't Swim in Gene's Pool
TTITLE5=Rawhide la Femme
TTITLE6=Mad Snap
TTITLE7=Werjerer
EXTD=
EXTT0=
EXTT1=
EXTT2=
EXTT3=
EXTT4=
EXTT5=
EXTT6=
EXTT7=
PLAYORDER=
